<?xml version="1.0" encoding="utf-8"?>
<!-- Generator: Adobe Illustrator 28.0.0, SVG Export Plug-In . SVG Version: 6.00 Build 0)  -->
<svg version="1.1" id="Layer_1" xmlns="http://www.w3.org/2000/svg" xmlns:xlink="http://www.w3.org/1999/xlink" x="0px" y="0px"
	 viewBox="0 0 800 179.3" style="enable-background:new 0 0 800 179.3;" xml:space="preserve">
<style type="text/css">
	.st0{fill:#FFFFFF;}
	.st1{fill:#565AEF;}
	.st2{fill:#D488FF;}
	.st3{fill:#FFDCFF;}
	.st4{fill:#002A3E;}
	.st5{fill:none;stroke:#002A3E;stroke-width:3.0465;stroke-miterlimit:10;}
	.st6{opacity:0.44;fill:#5A21FF;enable-background:new    ;}
	.st7{fill:none;}
</style>
<g>
	<rect y="0" class="st7" width="800" height="179.3"/>
	<g>
		<g>
			<polyline class="st1" points="155.3,16.5 215.2,16.5 215.2,137.6 177.4,175.6 3.6,175.6 3.6,56 42.1,16.5 102.4,16.5 			"/>
			<g>
				<polygon class="st2" points="33.5,175.6 54.1,82.9 25.7,74.7 21.2,35.8 54.4,8.8 142.4,5.9 149.2,14.9 160.1,12.9 170.1,22.9 
					169.1,27.8 180.8,42.4 191.1,126.8 193,159.9 177.4,175.6 				"/>
				<path class="st3" d="M21.3,34.5c7-5.2,33.1-1.8,36.4,0.6c9,18.7,23.5,62.7,23.5,62.7L22.7,75.5C22.7,75.5,20.2,45,21.3,34.5z"/>
				<path class="st4" d="M75.6,22.3c0,0,18.9,0,20,0c5.3,0,11.3,4.6,10.6,11.8c-0.7,6.7-11.5,10.4-11.5,10.4L75.6,22.3z"/>
				<circle class="st0" cx="84.1" cy="31.2" r="4.8"/>
				<path class="st4" d="M22,37.4h20.7c1.3,0,2.5,0.7,3.1,1.9l0,0c0.7,1.5,0.3,3.3-1,4.3l-12,9.4l-11.1-6.7L22,37.4z"/>
				<line class="st5" x1="32.9" y1="50.2" x2="32.9" y2="61.9"/>
				<path class="st4" d="M52.5,69.4c0.1-1.9-1.1-3.7-3-4.2c-2-0.6-16.8-4.9-16.8-4.9l-9.3,4.4l-0.1,3.4c0,0,7.2-3.5,9.8-4.6
					C34.8,64.2,52.5,69.4,52.5,69.4L52.5,69.4z"/>
				<polygon class="st6" points="36.9,160.5 102.7,102.4 51.1,85.9 				"/>
				<path class="st3" d="M45.9,32.1l21.5-17.2c0.6-0.5,1.3-0.7,2.1-0.7l81.4,0.2L141.7,6L55.8,6.7L28.2,34L45.9,32.1z"/>
				<path class="st6" d="M22.5,67.3c0,0,61.6,20.3,79.8,26.9c11,4,8.5,13.7,8.5,13.7L26,76.5l-4.9-7L22.5,67.3z"/>
				<path class="st6" d="M110.9,175.6l66.5,0l16.4-16.5L180.2,40.4l-10.9-12.9c3.8-6.9-4.4-8.9-4.4-8.9s1.3,3-0.9,5.2
					c-3.1,3.1-20.2,17.7-21.9,19.4c-0.6,0.6-0.2,1.7,0.6,1.8l18.8,2.3l6.4,65.6L110.9,175.6z"/>
				<path class="st3" d="M52.6,91.3l0.8,10.6c0,2.6-2.8,18.4-2.8,18.7l-7,55h-9.8L52.6,91.3z"/>
				<polygon class="st3" points="180.4,41.3 193.3,159.6 186.2,166.7 172.3,31.3 				"/>
				<g>
					<path class="st4" d="M191.1,161.8L178.3,45.9c-0.2-1.5-0.8-2.9-1.8-3.9l-0.2-0.3L167,28.6l4.1-2.9l9.1,13
						c1.7,1.9,2.8,4.3,3.1,6.8l12.6,111.5L191.1,161.8z"/>
				</g>
				<g>
					<polygon class="st4" points="36,175.6 31.1,175.6 49.6,85.7 54.2,86.8 					"/>
				</g>
				<path class="st3" d="M143.9,24.4c1.6,1.3,4.9,1.5,6.5,0.4c3-2,8.4-6.4,10.4-7c2.7-0.8,7.4,0.9,7.4,0.9l-9.6-6.8l-6.9,4.2
					l-9.8,6.8L143.9,24.4z"/>
				<g>
					<path class="st4" d="M160.4,38.6L160.4,38.6c-2.1-3.1-1.8-5.9,1.1-8.2c1.3-1,2.6-2.5,3.4-3.2c2.1-1.6,2.3-4.8,1-6.9
						c-0.9-1.5-2.6-3.6-5-5.2c-1.4-1-3.7-1.4-7.6,1.5c-2.7,2.1-4.7,3.6-6.6,5.1c-2.4,2-4.9,3-7,0.7l-0.8-0.8
						c0.2-0.2,5.8-4.8,11.5-9.1c4-3.1,6.8-6.1,13.2-1.6c2,1.4,5.1,4.5,6.4,6c4.1,4.9,2.6,10.2-2.4,14.7
						C164.8,34.3,160.6,38.5,160.4,38.6z"/>
				</g>
				<path class="st0" d="M36.9,39.6h-7.8c-2.6,0-2.7,0.9-2.7,0.9h13C39.4,40.6,39.2,39.6,36.9,39.6z"/>
				<g>
					<path class="st4" d="M111.4,109.9L29.2,81c-5.6-1.9-9.3-7.2-9.5-13.1l-0.8-27c-0.1-3.8,1.5-7.4,4.4-9.8L53.1,7.2
						c2.8-2.3,6.3-3.6,10-3.6l74.2,0.6c4.3,0,8,2.5,10.7,5.7l4.2,5l-3.9,2.9l-5.1-5.6c-1.6-1.8-3.7-2.8-5.9-2.8L61.7,8.9
						c-2.1,0-4.1,0.7-5.7,2L25.3,35.5c-1.3,1-1.9,3.2-1.9,4.8l0.1,27.4c0.1,3.1,3.9,8.4,6.9,9.4l73.5,25.4
						C107.6,103.8,112.6,106.4,111.4,109.9L111.4,109.9z"/>
				</g>
				<g>
					<path class="st4" d="M78.4,95.8L58.5,41.1c-1.4-4-5.1-6.7-9.3-6.9l-22.7,0l1.7-3.4l21.2,0c5.6,0.3,10.4,3.9,12.3,9.1l19.9,54.8
						L78.4,95.8z"/>
				</g>
			</g>
		</g>
		<g>
			<path class="st0" d="M407.4,40.7c8.2,0,16.4,0,24.6,0c0-7.1,0-14.1,0-21.1c-8.2,0-16.4,0-24.6,0
				C407.4,26.7,407.4,33.7,407.4,40.7z"/>
			<rect x="407.4" y="51.3" class="st0" width="24.6" height="78.9"/>
			<path class="st0" d="M336.5,59.6c-8.3-16.9-33.2-11.5-47.7,0l-1-8.3h-23.7v78.9h24.6V73.1c13.3-14.1,26-4.8,26,5.1v52h24.6V73.1
				c13.3-14.1,26-4.8,26,5.1v52H390V72.8l0,0C389.6,42.7,352.7,44.3,336.5,59.6z"/>
			<g>
				<path class="st0" d="M530.7,77.2C531,44.9,489,42,473.9,59.6l-1-8.3h-23.6v78.9h24.6V73.1c13.3-14.3,32.2-4,32.2,8.1v49h24.6
					V73.1"/>
			</g>
			<path class="st0" d="M605.9,33.2v25.7c-6.5-6.4-15.3-10-25.5-10C560,48.9,543,62.9,543,85.5v10.6c0,22.7,16.9,37,37.4,37
				c10.4,0,19.3-3.7,25.8-10.3l1.4,7.4l22,0V26.4L605.9,33.2z M598.4,111.2c-3,3-7.1,4.6-12.2,4.6s-9.2-1.5-12.2-4.6
				c-4.1-4.2-6.2-11-6.2-20.3c0-9.3,2.1-16.1,6.2-20.3c3-3,7.1-4.6,12.2-4.6c5,0,9.1,1.5,12.2,4.6c4.1,4.2,6.2,11,6.2,20.3
				C604.7,100.3,602.6,107.1,598.4,111.2z"/>
			<path class="st0" d="M697.3,111.2c-3,3-7.1,4.6-12.2,4.6s-9.2-1.5-12.2-4.6c-2.8-2.8-4.7-7-5.6-12.3h17.8h43.2l0.1-13.2
				c0-9-3.8-18-10.4-24.6c-5.5-5.5-15.7-12.2-32.9-12.2c-17.2,0-27.4,6.6-32.9,12.2c-6.6,6.6-10.4,15.6-10.4,24.6v10.6
				c0,9,3.8,18,10.4,24.6c5.5,5.5,15.7,12.1,32.9,12.1c17.2,0,27.3-6.6,32.9-12.1c3.4-3.4,6-7.4,7.8-11.8H699
				C698.5,109.9,697.9,110.6,697.3,111.2z M685.1,66.1c5,0,9.1,1.5,12.2,4.6c2.8,2.8,4.7,7,5.6,12.3h-35.5c0.9-5.3,2.7-9.5,5.6-12.3
				C675.9,67.7,680,66.1,685.1,66.1z"/>
			<path class="st0" d="M765.3,59.3L765.3,59.3l0-8h-24.6v78.9h24.6V77.5l0,0c8.2-5.6,21-11.6,31.1-11.6V49.4
				C784.5,46.9,774.6,51.8,765.3,59.3z"/>
		</g>
	</g>
</g>
</svg>
