<svg xmlns="http://www.w3.org/2000/svg" xmlns:xlink="http://www.w3.org/1999/xlink" viewBox="0 0 1056.36 154.03"><defs><style>.cls-1,.cls-2{fill-rule:evenodd;}.cls-1{fill:url(#GradientFill_1);}.cls-2{fill:#fff;}</style><linearGradient id="GradientFill_1" x1="52.8" y1="147.72" x2="156.72" y2="6.34" gradientUnits="userSpaceOnUse"><stop offset="0" stop-color="#2e55a2"/><stop offset="1" stop-color="#39bfed"/></linearGradient></defs><g id="Layer_2" data-name="Layer 2"><g id="Layer_1-2" data-name="Layer 1"><path class="cls-1" d="M160.87,99.5V54.58c-30,0-12.45,0-55.83-.06L160.85,0h48.68V119.15L175.12,154l-70.07,0L160.87,99.5Zm-112.21-45V99.44c35.09.07,17.28.06,55.83.07L48.68,154H0V34.89L34.41,0l70.07,0Z"/><path class="cls-2" d="M1022.39,145.25l-24.47-50-14.27,14.72v35.33H954V0h29.67V76.17l36.69-42.35h36l-37.38,41,36.47,70.44ZM377.52,105v11c0,35.74,30.42,33.73,54.81,30.59l-4-22.36c-17.52.38-22.47-1.75-22.47-19.31.22-42.21.26-47.3.28-51.75h23.91V30.88H406.18c0-6.72.05-18,.1-30.88H377.5V30.88H360.05V53.2H377.5l0,51.78Zm-53.8-37.41q-1.14-8.16-5.89-11.44t-14.94-3.29q-8.38,0-12.92,2.15a7.37,7.37,0,0,0-4.53,7.14A8.29,8.29,0,0,0,290,69.72a61.24,61.24,0,0,0,13.6,5.09c6.33,1.82,12.38,3.44,18.11,4.87a140,140,0,0,1,15.18,4.64,31.83,31.83,0,0,1,13.59,9.86q4.76,6.22,4.76,17.1,0,17.43-12.35,27.18t-36.35,9.74q-25.83,0-39.52-10.87t-14.17-27.87h30.36q0,7.94,6.11,12.24t17,4.3a33.8,33.8,0,0,0,13.81-2.6,9.1,9.1,0,0,0,5.89-9,8.59,8.59,0,0,0-5.32-8.38,68.78,68.78,0,0,0-12.56-4.3q-14.06-3.4-22.66-6.12A58.65,58.65,0,0,1,271,89.08q-7.93-5-11-11.32a31.54,31.54,0,0,1-3-13.82,34.63,34.63,0,0,1,2.48-13.13,25.46,25.46,0,0,1,8.16-10.54,41.89,41.89,0,0,1,14.61-6.91,81.61,81.61,0,0,1,21.63-2.48q24.24,0,35.68,9.28T352,67.57Zm188.49,77.68a44.76,44.76,0,0,1-1.81-10,36.48,36.48,0,0,1-13.82,9.41,52.45,52.45,0,0,1-19.93,3.51q-19.26,0-28.2-8.5t-8.95-22.08q0-12,3.86-19.14A28.63,28.63,0,0,1,454,87.27a51.17,51.17,0,0,1,16.19-6q9.4-1.92,20.5-3.51t14.95-4.2q3.86-2.59,3.85-8.49,0-5.43-5.09-8.49c-3.41-2-8-3.06-13.71-3.06q-10.19,0-14.61,4.53a21.28,21.28,0,0,0-5.55,12h-27.4A50.43,50.43,0,0,1,446,54.2a30.29,30.29,0,0,1,8.38-12.45,39.28,39.28,0,0,1,15.06-8q9.28-2.82,22.65-2.82,13.14,0,22.31,2.94a35.84,35.84,0,0,1,14.72,8.49,32.19,32.19,0,0,1,8,13.82,64.33,64.33,0,0,1,2.5,18.68v70.44Zm-2-54.58a15.79,15.79,0,0,1-6.57,3.62,119.89,119.89,0,0,1-12.46,2.95q-12.67,2.49-17.43,6.34T469,114.67q0,12.47,14.27,12.46a28.44,28.44,0,0,0,10.53-1.92,25.67,25.67,0,0,0,14-12.91,21.28,21.28,0,0,0,2.16-9.4l.22-12.23Zm146.51,14.26a46.76,46.76,0,0,1-5.54,17.68,47.82,47.82,0,0,1-11.21,13.58A51.32,51.32,0,0,1,624.42,145a54.89,54.89,0,0,1-18.92,3.18,55.73,55.73,0,0,1-20.73-3.74,42.58,42.58,0,0,1-16.18-11.32,52.64,52.64,0,0,1-10.54-18.81q-3.74-11.2-3.74-26.15t3.74-25.82a46.21,46.21,0,0,1,10.54-17.78A42.47,42.47,0,0,1,585,34.27a64.09,64.09,0,0,1,21.4-3.39,62.87,62.87,0,0,1,19.82,2.94,46.17,46.17,0,0,1,15.63,8.6A41.09,41.09,0,0,1,652.38,56a47.42,47.42,0,0,1,4.53,17.66H627.24q-1.12-8.61-6.9-13.48a21.27,21.27,0,0,0-14.16-4.87,24.06,24.06,0,0,0-8.83,1.59,17.24,17.24,0,0,0-7.14,5.33,28,28,0,0,0-4.87,10,55.76,55.76,0,0,0-1.81,15.29q0,18.35,6.56,27.17t15.18,8.84A23.28,23.28,0,0,0,620,118.76q6.12-4.77,7-13.83Zm80.85,40.32-24.46-50L698.8,109.92v35.33H669.12V0h29.67V76.17l36.68-42.35h36l-37.37,41,36.47,70.44Zm44.82,0V0h29.44V145.25Zm100.54,2.95a64.4,64.4,0,0,1-24.24-4.3,49.77,49.77,0,0,1-29.22-30.58,71,71,0,0,1-3.85-23.79,69.45,69.45,0,0,1,4-24A50.32,50.32,0,0,1,859,35.06a64.3,64.3,0,0,1,23.9-4.18,62.72,62.72,0,0,1,23.55,4.18,49.73,49.73,0,0,1,29.1,30.24,70.14,70.14,0,0,1,4,24.23,69.24,69.24,0,0,1-4,24.13,52.62,52.62,0,0,1-11.32,18.46A49.92,49.92,0,0,1,906.33,144a63,63,0,0,1-23.44,4.19Zm0-24.69q27,0,27-34,0-33.73-27-33.74t-27,33.74Q855.93,123.52,882.89,123.51Z"/></g></g></svg>