<svg width="124" height="24" viewBox="0 0 124 24" fill="none" xmlns="http://www.w3.org/2000/svg">
<g id="Group">
<path id="Vector" d="M15.951 24.0002L31.8063 7.99365V18.2232L26.0853 24.0002H15.951Z" fill="#59CFA8"/>
<path id="Vector_2" d="M15.8553 0L0 16.0044V5.77486L5.72104 0H15.8553Z" fill="#59CFA8"/>
<path id="Vector_3" d="M31.8063 7.99344L31.7976 0H23.8786L15.9597 7.99344H31.8063Z" fill="#00BBBE"/>
<path id="Vector_4" d="M0 16.0044L0.0087045 24H7.92763L15.8465 16.0044H0Z" fill="#00BBBE"/>
<path id="Vector_5" d="M23.8787 15.9958V7.99365H31.8063L23.8787 15.9958Z" fill="#002A3E"/>
<path id="Vector_6" d="M7.92763 8.00195V16.0041H0L7.92763 8.00195Z" fill="#002A3E"/>
<path id="Vector_7" d="M78.8868 9.14753C78.9455 8.57048 79.1501 6.69944 79.1501 6.69944C78.2165 6.32567 77.2111 6.1377 76.2254 6.1377C75.1395 6.1377 74.0775 6.36502 73.1635 6.81966C71.3269 7.73332 70.2301 9.67431 70.2323 12.0109C70.2301 14.3475 71.3247 16.2885 73.1635 17.2022C74.9023 18.0656 77.185 18.1093 79.1479 17.3224C79.1479 17.3224 78.9433 15.4514 78.8846 14.8743C77.6333 15.2153 76.4974 15.4317 75.3745 14.9858C74.2364 14.5333 73.6053 13.4776 73.5966 12.0131C73.6053 10.5443 74.2364 9.48851 75.3745 9.03824C76.4995 8.59015 77.6355 8.80873 78.8868 9.14753Z" fill="#002A3E"/>
<path id="Vector_8" d="M93.6953 3.93008V17.5301H97.1118V2.98145L93.6953 3.93008Z" fill="#002A3E"/>
<path id="Vector_9" d="M91.1209 6.46997H88.2288L84.364 11.2612V2.98145L80.9453 3.93008V17.5301H84.364V14.8459L85.7023 13.1847L88.6423 17.5301H92.3025L87.6913 10.7192L91.1209 6.46997Z" fill="#002A3E"/>
<path id="Vector_10" d="M120.342 17.5301H124L119.391 10.7192L122.821 6.46997H119.928L116.062 11.2612V2.98145L112.643 3.93008V17.5301H116.062V14.8459L117.402 13.1847L120.342 17.5301Z" fill="#002A3E"/>
<path id="Vector_11" d="M106.639 14.8457C106.217 15.2719 105.649 15.4883 104.948 15.4883C104.247 15.4883 103.677 15.2719 103.255 14.8457C102.678 14.2643 102.391 13.3069 102.393 12.002C102.391 10.6993 102.681 9.74188 103.255 9.16046C103.677 8.73423 104.245 8.51784 104.948 8.51784C105.651 8.51784 106.217 8.73423 106.639 9.16046C107.216 9.74188 107.503 10.6993 107.501 12.0042C107.503 13.3069 107.213 14.2643 106.639 14.8457ZM104.948 6.10254C102.565 6.10254 101.146 7.02932 100.378 7.80746C99.4599 8.73642 98.9333 9.99543 98.9354 11.261V12.7473C98.9354 14.0129 99.4599 15.2719 100.378 16.2009C101.149 16.979 102.565 17.9058 104.948 17.9058C107.331 17.9058 108.748 16.979 109.516 16.2009C110.434 15.2719 110.961 14.0151 110.959 12.7473V11.261C110.959 9.99543 110.434 8.73642 109.516 7.80746C108.748 7.02932 107.329 6.10254 104.948 6.10254Z" fill="#002A3E"/>
<path id="Vector_12" d="M56.4966 6.46778H53.3695V2.98145L49.9508 3.93008V13.5716C49.9508 15.6743 50.9366 17.2022 52.5861 17.6612C53.759 17.9869 55.0516 17.9563 56.4966 17.5847V15.1782C56.0461 15.2722 55.5717 15.3181 55.0212 15.3049C54.1877 15.2831 53.4 14.4437 53.4 13.576L53.3673 8.69511H56.4944V6.46778H56.4966Z" fill="#002A3E"/>
<path id="Vector_13" d="M47.6876 12.1332C46.469 10.8151 44.1623 10.9419 42.5629 10.3955C42.058 10.2228 41.4226 9.78346 41.762 9.16706C42.0123 8.7146 42.602 8.61406 43.0699 8.58127C44.7303 8.45887 46.3232 8.85887 47.7442 9.24138L47.9901 6.97034C45.3788 6.12663 41.0918 5.32444 38.9984 7.72007C37.9712 8.89602 37.9473 10.802 38.9483 11.8818C40.1669 13.1955 42.4736 13.0731 44.0709 13.6173C44.5061 13.766 45.0219 14.0567 44.9588 14.5944C44.8826 15.2414 44.0905 15.3922 43.5639 15.4294C41.9035 15.5539 40.3106 15.1518 38.8896 14.7692L38.6437 17.0403C41.2572 17.884 45.542 18.6862 47.6354 16.2906C48.6647 15.1168 48.6886 13.213 47.6876 12.1332Z" fill="#002A3E"/>
<path id="Vector_14" d="M65.2489 14.5878C64.3784 15.3856 63.2425 15.7462 62.087 15.4774C61.469 15.3331 61.086 14.708 61.1948 14.0216C61.3449 13.0643 62.3677 12.7976 62.8573 12.6686L65.2532 12.061L65.2489 14.5878ZM68.5131 9.72874C68.5131 8.99431 68.228 8.24677 67.7319 7.67409C66.8505 6.65551 65.3512 6.13529 63.273 6.12218C61.9477 6.11562 60.3178 6.40415 58.7401 6.91781L58.986 9.2107C60.2286 8.87409 61.6017 8.52218 63.0358 8.52218C63.6516 8.52218 64.5656 8.55715 64.9704 9.11671C65.3969 9.70688 64.6613 10.2052 64.1674 10.3757C62.9814 10.7845 61.7279 10.9768 60.5136 11.2806C59.0643 11.6457 57.9545 13.1845 57.985 14.7888C58.0024 15.6981 58.4028 16.5593 59.0578 17.097C60.7182 18.4522 63.6037 17.9801 65.2532 16.3058L65.4752 17.5276H68.537L68.5131 9.72874Z" fill="#002A3E"/>
</g>
</svg>
